<svg width="96" height="51" viewBox="0 0 96 51" fill="none" xmlns="http://www.w3.org/2000/svg">
<g clip-path="url(#clip0_4706_19729)">
<path d="M45.4415 43.7345C40.3055 48.6945 33.6713 51.0003 26.4662 51.0003C7.91918 51.0003 0.0723369 38.4947 0.000934888 25.7796C-0.0704671 12.9945 8.41838 0 26.4662 0C33.2432 0 39.6632 2.5153 44.7995 7.47505L38.5211 13.4129C35.2397 10.2691 30.8167 8.80127 26.4652 8.80127C14.4097 8.80127 9.20225 17.6025 9.27334 25.7778C9.34505 33.8819 14.1244 42.3353 26.4652 42.3353C30.817 42.3353 35.7389 40.5886 39.0203 37.3749L45.4415 43.7345Z" fill="white"/>
<path d="M64.1347 48.678L40.9598 28.4188L46.7646 22.0487L62.8052 36.0699L88.9869 1.35852L96 6.43221L64.1347 48.678Z" fill="white"/>
</g>
<defs>
<clipPath id="clip0_4706_19729">
<rect width="96" height="51" fill="white"/>
</clipPath>
</defs>
</svg>
