<svg width="20" height="20" viewBox="0 0 20 20" fill="none" xmlns="http://www.w3.org/2000/svg">
<path d="M15 0.430054H5C2 0.430054 0 2.43005 0 5.43005V11.4301C0 14.4301 2 16.4301 5 16.4301H9L13.45 19.3901C14.11 19.8301 15 19.3601 15 18.5601V16.4301C18 16.4301 20 14.4301 20 11.4301V5.43005C20 2.43005 18 0.430054 15 0.430054ZM13.5 9.25005H6.5C6.09 9.25005 5.75 8.91005 5.75 8.50005C5.75 8.09005 6.09 7.75005 6.5 7.75005H13.5C13.91 7.75005 14.25 8.09005 14.25 8.50005C14.25 8.91005 13.91 9.25005 13.5 9.25005Z" fill="white"/>
</svg>
