<svg width="22" height="22" viewBox="0 0 22 22" fill="none" xmlns="http://www.w3.org/2000/svg">
<path d="M19.5262 6.94825H14.4112C14.0537 6.94825 13.7695 6.66408 13.7695 6.30658C13.7695 5.94908 14.0537 5.66492 14.4112 5.66492H19.5262C19.8837 5.66492 20.1679 5.94908 20.1679 6.30658C20.1679 6.66408 19.8837 6.94825 19.5262 6.94825Z" fill="white"/>
<path d="M5.88565 6.94825H2.47565C2.11815 6.94825 1.83398 6.66408 1.83398 6.30658C1.83398 5.94908 2.11815 5.66492 2.47565 5.66492H5.88565C6.24315 5.66492 6.52732 5.94908 6.52732 6.30658C6.52732 6.66408 6.23398 6.94825 5.88565 6.94825Z" fill="white"/>
<path d="M9.29661 9.92746C11.2963 9.92746 12.9174 8.30636 12.9174 6.30662C12.9174 4.30689 11.2963 2.68579 9.29661 2.68579C7.29688 2.68579 5.67578 4.30689 5.67578 6.30662C5.67578 8.30636 7.29688 9.92746 9.29661 9.92746Z" fill="white"/>
<path d="M19.5263 16.3258H16.1163C15.7588 16.3258 15.4746 16.0416 15.4746 15.6841C15.4746 15.3266 15.7588 15.0425 16.1163 15.0425H19.5263C19.8838 15.0425 20.1679 15.3266 20.1679 15.6841C20.1679 16.0416 19.8838 16.3258 19.5263 16.3258Z" fill="white"/>
<path d="M7.59065 16.3258H2.47565C2.11815 16.3258 1.83398 16.0416 1.83398 15.6841C1.83398 15.3266 2.11815 15.0425 2.47565 15.0425H7.59065C7.94815 15.0425 8.23232 15.3266 8.23232 15.6841C8.23232 16.0416 7.93898 16.3258 7.59065 16.3258Z" fill="white"/>
<path d="M12.7048 19.3142C14.7045 19.3142 16.3257 17.6931 16.3257 15.6933C16.3257 13.6936 14.7045 12.0725 12.7048 12.0725C10.7051 12.0725 9.08398 13.6936 9.08398 15.6933C9.08398 17.6931 10.7051 19.3142 12.7048 19.3142Z" fill="white"/>
</svg>
